<svg xmlns="http://www.w3.org/2000/svg" version="1.0" viewBox="0 0 627 611"><path fill="#BF0000" d="M393 3c-71.3 4.4-125.5 19-162.6 44.1-18.9 12.7-34.9 29.1-45.4 46.5-6.5 10.7-10.2 19-14.4 32.7-3.8 12.3-75.2 324.8-76.2 333.7-1.3 12 3.2 24.6 12.3 34.1 15.1 15.8 41.9 25.7 81.3 30 13.8 1.5 54.4 1.5 69.5 0 23.4-2.4 47.4-7.2 47.5-9.5 0-.6-11.8-1-28.2-1.1-49.2-.4-77.1-6.8-98.3-22.8-14.1-10.7-21.9-28.2-20-45.2.9-8.1 67.8-301.8 71.1-312.2 15.2-47.9 82.2-75.4 183.9-75.5 44.4-.1 74.3 5.4 102.1 18.7 32.1 15.4 48.4 38.1 48.4 67.2 0 8.9-2.6 20.7-42.5 194.3C498.1 439.7 479 523.1 479 523.4c0 3.9 21.3-10.9 35.5-24.6 12.6-12.1 19.6-20.3 28-32.8 6.5-9.7 15.3-27.4 18.4-37 3.5-11.1 62-267.6 63.2-277.3 2.3-19-1.8-42.8-10.3-60.2-20.1-40.4-65.7-70.4-125.3-82.4-28-5.7-64.3-8-95.5-6.1"/><path d="M384 86.1c-16.7.8-33.7 2.8-49.4 6-10.2 2.1-13.6 3.3-13.6 4.9 0 .5 10.4.9 25.3.9 26.5-.1 39.7.9 56.2 4.2 33.4 6.7 54.7 20.5 62.6 40.7 1.9 4.8 2.3 7.6 2.3 17.7l.1 12-34.8 152c-22.9 99.9-35.8 154.3-37.6 158.7-11.6 27.6-39 47-83.1 58.7-46.6 12.4-116 15.1-160.2 6.1-20.5-4.2-42.1-12.8-56.3-22.3-7.9-5.3-19.2-16.9-23.4-24-6.3-10.7-8.3-17.9-8.8-31.2l-.5-12L105 276c23.2-100.4 42.4-184 42.7-185.8.8-4.4-1.3-4.2-9 1-11.5 7.7-18.2 13.1-28.6 23.2C90 134 75.3 156.1 67.2 179c-1.6 4.7-16.8 68.3-33.8 141.5l-30.8 133v18c0 16.3.3 19 2.7 28 6.1 22.9 19.8 44 38.8 60.2 43.6 36.8 111.6 53.8 194.1 48.3 56.2-3.7 99.1-13.4 133.6-30.1 44.6-21.5 71.3-50.6 84.1-91.5 3.1-9.8 75.3-325.6 76.5-334.5 1-7.2-1-17.4-5.1-25.1-9.7-18.5-35-31.6-73.1-37.7-10.4-1.7-49.3-4.5-53.7-3.9-.5 0-8 .4-16.5.9"/></svg>